# xmcd CD database file
#
# Track frame offsets:
#	225
#	18867
#	42346
#	57399
#	71515
#	88624
#	110929
#	130977
#	150265
#	167466
#	194420
#	212084
#	232595
#	256549
#
# Disc length: 3787 seconds
#
# Revision: 1
# Processed by: cddbd v1.4PL0 Copyright (c) Steve Scherf et al.
# Submitted via: CDex 1.50Beta7
#
DISCID=b00ec80e
DTITLE=Nature´s Magic - The Voyage of the whale
DYEAR=1900
DGENRE=New Age
TTITLE0=Cavatina
TTITLE1=In too deep
TTITLE2=Theme from love story
TTITLE3=Hymne
TTITLE4=The incredible hulk
TTITLE5=Here we are
TTITLE6=Hello
TTITLE7=If you leave me now
TTITLE8=How deep is your love
TTITLE9=Father figure
TTITLE10=Saltwater
TTITLE11=Lily was here
TTITLE12=Shine on you crazy diamond
TTITLE13=Come back to me
EXTD=
EXTT0=
EXTT1=
EXTT2=
EXTT3=
EXTT4=
EXTT5=
EXTT6=
EXTT7=
EXTT8=
EXTT9=
EXTT10=
EXTT11=
EXTT12=
EXTT13=
PLAYORDER=
